<mxfile host="app.diagrams.net" modified="2024-03-09T12:52:19.968Z" agent="Mozilla/5.0 (Windows NT 10.0; Win64; x64) AppleWebKit/537.36 (KHTML, like Gecko) Chrome/122.0.0.0 Safari/537.36" etag="P_TfWa4unzNEwa3wlPyL" version="24.0.3" type="device">
  <diagram name="Page-1" id="b98fa263-6416-c6ec-5b7d-78bf54ef71d0">
    <mxGraphModel dx="836" dy="478" grid="0" gridSize="10" guides="1" tooltips="1" connect="1" arrows="0" fold="1" page="1" pageScale="1.5" pageWidth="1169" pageHeight="826" background="#000000" math="0" shadow="0">
      <root>
        <mxCell id="0" style=";html=1;" />
        <mxCell id="1" style=";html=1;" parent="0" />
        <mxCell id="303ed1de8c2c98b4-3" value="Skin Disease&amp;nbsp;&lt;br&gt;Detection System" style="rounded=1;shadow=1;strokeWidth=1;fontSize=16;align=center;fillColor=#000000;strokeColor=#FFFFFF;fontColor=#FFFFFF;fontFamily=Times New Roman;whiteSpace=wrap;html=1;labelBackgroundColor=none;" parent="1" vertex="1">
          <mxGeometry x="747" y="310" width="270" height="64" as="geometry" />
        </mxCell>
        <mxCell id="a5ysi49OylQJOefCoNrB-3" value="" style="edgeStyle=orthogonalEdgeStyle;rounded=0;orthogonalLoop=1;jettySize=auto;exitX=0.5;exitY=1;exitDx=0;exitDy=0;fontColor=#FFFFFF;fontFamily=Times New Roman;html=1;fillColor=#000000;strokeColor=#FFFFFF;labelBackgroundColor=none;" edge="1" parent="1" source="303ed1de8c2c98b4-5">
          <mxGeometry relative="1" as="geometry">
            <mxPoint x="759.9999999999998" y="540" as="targetPoint" />
          </mxGeometry>
        </mxCell>
        <mxCell id="303ed1de8c2c98b4-5" value="Patient Uploaded image" style="whiteSpace=wrap;html=1;rounded=1;shadow=1;strokeWidth=1;fontSize=16;align=center;fillColor=#000000;strokeColor=#FFFFFF;fontColor=#FFFFFF;labelBackgroundColor=none;" parent="1" vertex="1">
          <mxGeometry x="533" y="415" width="275" height="40" as="geometry" />
        </mxCell>
        <mxCell id="a5ysi49OylQJOefCoNrB-4" value="" style="edgeStyle=orthogonalEdgeStyle;rounded=0;orthogonalLoop=1;jettySize=auto;exitX=0.5;exitY=1;exitDx=0;exitDy=0;fontColor=#FFFFFF;fontFamily=Times New Roman;html=1;fillColor=#000000;strokeColor=#FFFFFF;labelBackgroundColor=none;" edge="1" parent="1" source="303ed1de8c2c98b4-8">
          <mxGeometry relative="1" as="geometry">
            <mxPoint x="1000" y="540" as="targetPoint" />
          </mxGeometry>
        </mxCell>
        <mxCell id="303ed1de8c2c98b4-8" value="Database of Skin Images" style="whiteSpace=wrap;html=1;rounded=1;shadow=1;strokeWidth=1;fontSize=16;align=center;fillColor=#000000;strokeColor=#FFFFFF;fontColor=#FFFFFF;labelBackgroundColor=none;" parent="1" vertex="1">
          <mxGeometry x="949" y="415" width="275" height="40" as="geometry" />
        </mxCell>
        <mxCell id="303ed1de8c2c98b4-80" value="" style="edgeStyle=orthogonalEdgeStyle;startSize=6;endFill=0;endSize=6;strokeWidth=1;fontSize=16;rounded=0;endArrow=none;fontColor=#FFFFFF;fontFamily=Times New Roman;html=1;fillColor=#000000;strokeColor=#FFFFFF;labelBackgroundColor=none;" parent="1" edge="1">
          <mxGeometry relative="1" as="geometry">
            <Array as="points">
              <mxPoint x="878" y="390" />
              <mxPoint x="682" y="390" />
            </Array>
            <mxPoint x="878.0000000000002" y="375" as="sourcePoint" />
            <mxPoint x="681.9999999999998" y="415" as="targetPoint" />
          </mxGeometry>
        </mxCell>
        <mxCell id="303ed1de8c2c98b4-83" value="" style="edgeStyle=orthogonalEdgeStyle;startSize=6;endFill=0;endSize=6;strokeWidth=1;fontSize=16;rounded=0;endArrow=none;fontColor=#FFFFFF;fontFamily=Times New Roman;html=1;fillColor=#000000;strokeColor=#FFFFFF;labelBackgroundColor=none;" parent="1" edge="1">
          <mxGeometry relative="1" as="geometry">
            <Array as="points">
              <mxPoint x="878" y="390" />
              <mxPoint x="1053" y="390" />
            </Array>
            <mxPoint x="877.9473684210527" y="375" as="sourcePoint" />
            <mxPoint x="1053" y="415" as="targetPoint" />
          </mxGeometry>
        </mxCell>
        <mxCell id="a5ysi49OylQJOefCoNrB-6" value="" style="edgeStyle=orthogonalEdgeStyle;rounded=0;orthogonalLoop=1;jettySize=auto;exitX=0.5;exitY=1;exitDx=0;exitDy=0;fontColor=#FFFFFF;fontFamily=Times New Roman;html=1;fillColor=#000000;strokeColor=#FFFFFF;labelBackgroundColor=none;" edge="1" parent="1" source="a5ysi49OylQJOefCoNrB-5">
          <mxGeometry relative="1" as="geometry">
            <mxPoint x="876.4615384615386" y="680" as="targetPoint" />
          </mxGeometry>
        </mxCell>
        <mxCell id="a5ysi49OylQJOefCoNrB-5" value="Disease&amp;nbsp;Detection Algorithms&lt;br&gt;(SVM, Naive Bayes)" style="rounded=1;shadow=1;strokeWidth=1;fontSize=16;align=center;fillColor=#000000;strokeColor=#FFFFFF;fontColor=#FFFFFF;fontFamily=Times New Roman;whiteSpace=wrap;html=1;labelBackgroundColor=none;" vertex="1" parent="1">
          <mxGeometry x="742" y="540" width="270" height="64" as="geometry" />
        </mxCell>
        <mxCell id="a5ysi49OylQJOefCoNrB-7" value="Clinic Recommendation Based on Patient&#39;s Disease" style="rounded=1;shadow=1;strokeWidth=1;fontSize=16;align=center;fillColor=#000000;strokeColor=#FFFFFF;fontColor=#FFFFFF;fontFamily=Times New Roman;whiteSpace=wrap;html=1;labelBackgroundColor=none;" vertex="1" parent="1">
          <mxGeometry x="712" y="680" width="330" height="64" as="geometry" />
        </mxCell>
      </root>
    </mxGraphModel>
  </diagram>
</mxfile>
